<svg width="280" height="164" viewBox="0 0 280 164" fill="none" xmlns="http://www.w3.org/2000/svg">
<path d="M-412.305 110.479C-376.734 96.6655 -340.335 93.9531 -303.109 102.342C-265.884 110.731 -229.485 108.019 -193.914 94.2048C-158.342 80.391 -121.944 77.6785 -84.7176 86.0675C-47.4917 94.4565 -11.0931 91.7441 24.4783 77.9302C60.0496 64.1164 96.4483 61.404 133.674 69.7929C170.9 78.1819 207.299 75.4695 242.87 61.6557C278.441 47.8418 314.84 45.1294 352.066 53.5184C389.292 61.9073 425.691 59.1949 461.262 45.3811C496.833 31.5672 533.232 28.8548 570.458 37.2438C607.684 45.6328 644.082 42.9203 679.654 29.1065C715.225 15.2927 751.624 12.5802 788.85 20.9692C826.076 29.3582 862.474 26.6458 898.046 12.8319C933.617 -0.981907 970.016 -3.69434 1007.24 4.69464C1044.47 13.0836 1080.87 10.3712 1116.44 -3.44264C1152.01 -17.2565 1188.41 -19.9689 1225.63 -11.5799C1262.86 -3.19095 1299.26 -5.90338 1334.83 -19.7172C1370.4 -33.5311 1406.8 -36.2435 1444.03 -27.8545C1481.25 -19.4655 1517.65 -22.178 1553.22 -35.9918C1588.79 -49.8056 1625.19 -52.5181 1662.42 -44.1291C1699.64 -35.7401 1736.04 -38.4525 1771.61 -52.2664" stroke="#F2F7FF" stroke-opacity="0.1"/>
<path d="M-411.59 120.086C-376.018 106.272 -339.62 103.56 -302.394 111.949C-265.168 120.338 -228.769 117.625 -193.198 103.811C-157.626 89.9974 -121.228 87.285 -84.0018 95.674C-46.7759 104.063 -10.3772 101.351 25.1941 87.5367C60.7655 73.7228 97.1641 71.0104 134.39 79.3994C171.616 87.7884 208.015 85.0759 243.586 71.2621C279.157 57.4483 315.556 54.7358 352.782 63.1248C390.008 71.5138 426.406 68.8014 461.978 54.9875C497.549 41.1737 533.948 38.4613 571.174 46.8502C608.4 55.2392 644.798 52.5268 680.37 38.713C715.941 24.8991 752.34 22.1867 789.565 30.5757C826.791 38.9646 863.19 36.2522 898.761 22.4384C934.333 8.62454 970.731 5.91211 1007.96 14.3011C1045.18 22.6901 1081.58 19.9776 1117.15 6.1638C1152.72 -7.65004 1189.12 -10.3625 1226.35 -1.97348C1263.57 6.4155 1299.97 3.70307 1335.54 -10.1108C1371.12 -23.9246 1407.51 -26.637 1444.74 -18.2481C1481.97 -9.85908 1518.37 -12.5715 1553.94 -26.3853C1589.51 -40.1992 1625.91 -42.9116 1663.13 -34.5226C1700.36 -26.1337 1736.76 -28.8461 1772.33 -42.6599" stroke="#F2F7FF" stroke-opacity="0.1"/>
<path d="M-410.873 129.693C-375.302 115.879 -338.903 113.167 -301.678 121.556C-264.452 129.945 -228.053 127.233 -192.482 113.419C-156.91 99.6048 -120.512 96.8924 -83.2858 105.281C-46.0599 113.67 -9.66123 110.958 25.9101 97.1441C61.4815 83.3303 97.8801 80.6178 135.106 89.0068C172.332 97.3958 208.731 94.6834 244.302 80.8695C279.873 67.0557 316.272 64.3433 353.498 72.7322C390.724 81.1212 427.122 78.4088 462.694 64.595C498.265 50.7811 534.664 48.0687 571.89 56.4577C609.115 64.8466 645.514 62.1342 681.085 48.3204C716.657 34.5065 753.055 31.7941 790.281 40.1831C827.507 48.5721 863.906 45.8596 899.477 32.0458C935.049 18.232 971.447 15.5195 1008.67 23.9085C1045.9 32.2975 1082.3 29.5851 1117.87 15.7712C1153.44 1.9574 1189.84 -0.75503 1227.06 7.63395C1264.29 16.0229 1300.69 13.3105 1336.26 -0.503336C1371.83 -14.3172 1408.23 -17.0296 1445.46 -8.64062C1482.68 -0.251641 1519.08 -2.96407 1554.65 -16.7779C1590.22 -30.5917 1626.62 -33.3042 1663.85 -24.9152C1701.07 -16.5262 1737.47 -19.2386 1773.04 -33.0525" stroke="#F2F7FF" stroke-opacity="0.1"/>
<path d="M-410.158 139.3C-374.586 125.486 -338.188 122.773 -300.962 131.162C-263.736 139.551 -227.337 136.839 -191.766 123.025C-156.194 109.211 -119.796 106.499 -82.5699 114.888C-45.344 123.277 -8.94536 120.564 26.626 106.751C62.1973 92.9367 98.596 90.2243 135.822 98.6133C173.048 107.002 209.446 104.29 245.018 90.476C280.589 76.6621 316.988 73.9497 354.214 82.3387C391.44 90.7277 427.838 88.0152 463.41 74.2014C498.981 60.3876 535.38 57.6751 572.606 66.0641C609.831 74.4531 646.23 71.7407 681.801 57.9268C717.373 44.113 753.771 41.4006 790.997 49.7895C828.223 58.1785 864.622 55.4661 900.193 41.6522C935.765 27.8384 972.163 25.126 1009.39 33.515C1046.62 41.9039 1083.01 39.1915 1118.59 25.3777C1154.16 11.5638 1190.56 8.8514 1227.78 17.2404C1265.01 25.6294 1301.41 22.9169 1336.98 9.1031C1372.55 -4.71074 1408.95 -7.42317 1446.17 0.965808C1483.4 9.35479 1519.8 6.64236 1555.37 -7.17148C1590.94 -20.9853 1627.34 -23.6977 1664.56 -15.3088C1701.79 -6.91979 1738.19 -9.63221 1773.76 -23.4461" stroke="#F2F7FF" stroke-opacity="0.1"/>
<path d="M-409.442 148.907C-373.87 135.093 -337.472 132.381 -300.246 140.77C-263.02 149.159 -226.621 146.446 -191.05 132.633C-155.479 118.819 -119.08 116.106 -81.8541 124.495C-44.6282 132.884 -8.22954 130.172 27.3418 116.358C62.9132 102.544 99.3118 99.8317 136.538 108.221C173.764 116.61 210.162 113.897 245.734 100.083C281.305 86.2696 317.704 83.5571 354.93 91.9461C392.155 100.335 428.554 97.6227 464.125 83.8088C499.697 69.995 536.095 67.2825 573.321 75.6715C610.547 84.0605 646.946 81.3481 682.517 67.5342C718.089 53.7204 754.487 51.008 791.713 59.397C828.939 67.7859 865.338 65.0735 900.909 51.2597C936.48 37.4458 972.879 34.7334 1010.1 43.1224C1047.33 51.5114 1083.73 48.7989 1119.3 34.9851C1154.87 21.1713 1191.27 18.4588 1228.5 26.8478C1265.72 35.2368 1302.12 32.5244 1337.69 18.7105C1373.26 4.89668 1409.66 2.18425 1446.89 10.5732C1484.11 18.9622 1520.51 16.2498 1556.08 2.43594C1591.66 -11.3779 1628.05 -14.0903 1665.28 -5.70134C1702.51 2.68764 1738.9 -0.0247929 1774.48 -13.8386" stroke="#F2F7FF" stroke-opacity="0.1"/>
<path d="M-408.726 158.514C-373.154 144.7 -336.756 141.987 -299.53 150.376C-262.304 158.765 -225.905 156.053 -190.334 142.239C-154.763 128.425 -118.364 125.713 -81.138 134.102C-43.9121 142.491 -7.51348 139.778 28.0579 125.964C63.6292 112.151 100.028 109.438 137.254 117.827C174.48 126.216 210.878 123.504 246.45 109.69C282.021 95.876 318.42 93.1636 355.646 101.553C392.871 109.942 429.27 107.229 464.841 93.4153C500.413 79.6014 536.811 76.889 574.037 85.278C611.263 93.667 647.662 90.9545 683.233 77.1407C718.805 63.3268 755.203 60.6144 792.429 69.0034C829.655 77.3924 866.054 74.6799 901.625 60.8661C937.196 47.0523 973.595 44.3398 1010.82 52.7288C1048.05 61.1178 1084.45 58.4054 1120.02 44.5915C1155.59 30.7777 1191.99 28.0653 1229.21 36.4542C1266.44 44.8432 1302.84 42.1308 1338.41 28.317C1373.98 14.5031 1410.38 11.7907 1447.6 20.1797C1484.83 28.5687 1521.23 25.8562 1556.8 12.0424C1592.37 -1.77145 1628.77 -4.48388 1666 3.9051C1703.22 12.2941 1739.62 9.58165 1775.19 -4.23219" stroke="#F2F7FF" stroke-opacity="0.1"/>
<path d="M-408.01 168.12C-372.439 154.306 -336.04 151.594 -298.814 159.983C-261.588 168.372 -225.189 165.659 -189.618 151.845C-154.047 138.032 -117.648 135.319 -80.4222 143.708C-43.1963 152.097 -6.79766 149.385 28.7737 135.571C64.3451 121.757 100.744 119.045 137.97 127.434C175.196 135.823 211.594 133.11 247.166 119.296C282.737 105.482 319.135 102.77 356.361 111.159C393.587 119.548 429.986 116.836 465.557 103.022C501.129 89.2079 537.527 86.4954 574.753 94.8844C611.979 103.273 648.378 100.561 683.949 86.7471C719.52 72.9333 755.919 70.2209 793.145 78.6098C830.371 86.9988 866.77 84.2864 902.341 70.4726C937.912 56.6587 974.311 53.9463 1011.54 62.3353C1048.76 70.7242 1085.16 68.0118 1120.73 54.198C1156.3 40.3841 1192.7 37.6717 1229.93 46.0607C1267.15 54.4497 1303.55 51.7372 1339.12 37.9234C1374.7 24.1096 1411.09 21.3971 1448.32 29.7861C1485.55 38.1751 1521.94 35.4627 1557.52 21.6488C1593.09 7.835 1629.49 5.12257 1666.71 13.5115C1703.94 21.9005 1740.34 19.1881 1775.91 5.37426" stroke="#F2F7FF" stroke-opacity="0.1"/>
<path d="M-407.294 177.727C-371.723 163.914 -335.324 161.201 -298.098 169.59C-260.872 177.979 -224.474 175.267 -188.902 161.453C-153.331 147.639 -116.932 144.927 -79.7064 153.316C-42.4805 161.705 -6.08184 158.992 29.4895 145.178C65.0609 131.364 101.46 128.652 138.685 137.041C175.911 145.43 212.31 142.718 247.881 128.904C283.453 115.09 319.851 112.377 357.077 120.766C394.303 129.155 430.702 126.443 466.273 112.629C501.844 98.8153 538.243 96.1029 575.469 104.492C612.695 112.881 649.094 110.168 684.665 96.3546C720.236 82.5407 756.635 79.8283 793.861 88.2173C831.087 96.6062 867.485 93.8938 903.057 80.08C938.628 66.2661 975.027 63.5537 1012.25 71.9427C1049.48 80.3317 1085.88 77.6192 1121.45 63.8054C1157.02 49.9916 1193.42 47.2791 1230.64 55.6681C1267.87 64.0571 1304.27 61.3447 1339.84 47.5308C1375.41 33.717 1411.81 31.0046 1449.04 39.3935C1486.26 47.7825 1522.66 45.0701 1558.23 31.2563C1593.8 17.4424 1630.2 14.73 1667.43 23.119C1704.65 31.5079 1741.05 28.7955 1776.62 14.9817" stroke="#F2F7FF" stroke-opacity="0.1" stroke-width="2"/>
<path d="M-406.578 187.334C-371.007 173.52 -334.608 170.808 -297.382 179.197C-260.156 187.586 -223.758 184.873 -188.186 171.059C-152.615 157.245 -116.216 154.533 -78.9903 162.922C-41.7644 171.311 -5.36577 168.599 30.2056 154.785C65.7769 140.971 102.176 138.258 139.401 146.647C176.627 155.036 213.026 152.324 248.597 138.51C284.169 124.696 320.567 121.984 357.793 130.373C395.019 138.762 431.418 136.049 466.989 122.236C502.561 108.422 538.959 105.709 576.185 114.098C613.411 122.487 649.81 119.775 685.381 105.961C720.952 92.1472 757.351 89.4347 794.577 97.8237C831.803 106.213 868.201 103.5 903.773 89.6864C939.344 75.8726 975.743 73.1602 1012.97 81.5491C1050.19 89.9381 1086.59 87.2257 1122.16 73.4118C1157.74 59.598 1194.13 56.8856 1231.36 65.2746C1268.59 73.6635 1304.99 70.9511 1340.56 57.1373C1376.13 43.3234 1412.53 40.611 1449.75 49C1486.98 57.389 1523.38 54.6765 1558.95 40.8627C1594.52 27.0489 1630.92 24.3364 1668.14 32.7254C1705.37 41.1144 1741.77 38.402 1777.34 24.5881" stroke="#F2F7FF" stroke-opacity="0.1" stroke-width="2"/>
<path d="M-405.862 196.94C-370.291 183.126 -333.892 180.414 -296.666 188.803C-259.44 197.192 -223.042 194.48 -187.47 180.666C-151.899 166.852 -115.5 164.139 -78.2745 172.528C-41.0486 180.917 -4.64995 178.205 30.9214 164.391C66.4928 150.577 102.891 147.865 140.117 156.254C177.343 164.643 213.742 161.93 249.313 148.117C284.885 134.303 321.283 131.59 358.509 139.979C395.735 148.368 432.134 145.656 467.705 131.842C503.276 118.028 539.675 115.316 576.901 123.705C614.127 132.094 650.525 129.381 686.097 115.567C721.668 101.754 758.067 99.0412 795.293 107.43C832.519 115.819 868.917 113.107 904.489 99.2929C940.06 85.479 976.459 82.7666 1013.68 91.1556C1050.91 99.5446 1087.31 96.8321 1122.88 83.0183C1158.45 69.2045 1194.85 66.492 1232.08 74.881C1269.3 83.27 1305.7 80.5576 1341.27 66.7437C1376.84 52.9299 1413.24 50.2175 1450.47 58.6064C1487.69 66.9954 1524.09 64.283 1559.66 50.4691C1595.24 36.6553 1631.63 33.9429 1668.86 42.3319C1706.09 50.7208 1742.48 48.0084 1778.06 34.1946" stroke="#F2F7FF" stroke-opacity="0.1" stroke-width="2"/>
<path d="M-405.146 206.548C-369.575 192.734 -333.176 190.021 -295.95 198.41C-258.725 206.799 -222.326 204.087 -186.755 190.273C-151.183 176.459 -114.785 173.747 -77.5587 182.136C-40.3328 190.525 -3.93417 187.812 31.6372 173.999C67.2085 160.185 103.607 157.472 140.833 165.861C178.059 174.25 214.458 171.538 250.029 157.724C285.6 143.91 321.999 141.198 359.225 149.587C396.451 157.976 432.849 155.263 468.421 141.449C503.992 127.636 540.391 124.923 577.617 133.312C614.843 141.701 651.241 138.989 686.813 125.175C722.384 111.361 758.783 108.649 796.008 117.038C833.234 125.427 869.633 122.714 905.204 108.9C940.776 95.0865 977.174 92.374 1014.4 100.763C1051.63 109.152 1088.02 106.44 1123.6 92.6257C1159.17 78.8119 1195.57 76.0995 1232.79 84.4884C1270.02 92.8774 1306.42 90.165 1341.99 76.3512C1377.56 62.5373 1413.96 59.8249 1451.18 68.2139C1488.41 76.6029 1524.81 73.8904 1560.38 60.0766C1595.95 46.2627 1632.35 43.5503 1669.58 51.9393C1706.8 60.3283 1743.2 57.6158 1778.77 43.802" stroke="#F2F7FF" stroke-opacity="0.1" stroke-width="2"/>
<path d="M-404.431 216.154C-368.859 202.34 -332.461 199.628 -295.235 208.017C-258.009 216.406 -221.61 213.693 -186.039 199.88C-150.467 186.066 -114.069 183.353 -76.8429 191.742C-39.6169 200.131 -3.21831 197.419 32.353 183.605C67.9244 169.791 104.323 167.079 141.549 175.468C178.775 183.857 215.173 181.144 250.745 167.33C286.316 153.517 322.715 150.804 359.941 159.193C397.167 167.582 433.565 164.87 469.137 151.056C504.708 137.242 541.107 134.53 578.333 142.919C615.558 151.308 651.957 148.595 687.528 134.781C723.1 120.967 759.498 118.255 796.724 126.644C833.95 135.033 870.349 132.321 905.92 118.507C941.492 104.693 977.89 101.98 1015.12 110.369C1052.34 118.758 1088.74 116.046 1124.31 102.232C1159.88 88.4183 1196.28 85.7059 1233.51 94.0949C1270.73 102.484 1307.13 99.7714 1342.7 85.9576C1378.28 72.1437 1414.67 69.4313 1451.9 77.8203C1489.13 86.2093 1525.52 83.4969 1561.1 69.683C1596.67 55.8692 1633.07 53.1567 1670.29 61.5457C1707.52 69.9347 1743.92 67.2223 1779.49 53.4084" stroke="#F2F7FF" stroke-opacity="0.1" stroke-width="2"/>
<path d="M-403.715 225.761C-368.143 211.947 -331.745 209.234 -294.519 217.623C-257.293 226.012 -220.894 223.3 -185.323 209.486C-149.751 195.672 -113.353 192.96 -76.1268 201.349C-38.9009 209.738 -2.50225 207.025 33.0691 193.211C68.6405 179.398 105.039 176.685 142.265 185.074C179.491 193.463 215.89 190.751 251.461 176.937C287.032 163.123 323.431 160.411 360.657 168.8C397.883 177.189 434.281 174.476 469.853 160.662C505.424 146.848 541.823 144.136 579.049 152.525C616.275 160.914 652.673 158.202 688.245 144.388C723.816 130.574 760.215 127.861 797.44 136.25C834.666 144.639 871.065 141.927 906.636 128.113C942.208 114.299 978.606 111.587 1015.83 119.976C1053.06 128.365 1089.46 125.652 1125.03 111.839C1160.6 98.0248 1197 95.3123 1234.22 103.701C1271.45 112.09 1307.85 109.378 1343.42 95.564C1378.99 81.7502 1415.39 79.0378 1452.62 87.4267C1489.84 95.8157 1526.24 93.1033 1561.81 79.2895C1597.38 65.4756 1633.78 62.7632 1671.01 71.1522C1708.23 79.5412 1744.63 76.8287 1780.2 63.0149" stroke="#F2F7FF" stroke-opacity="0.1" stroke-width="2"/>
<path d="M-402.999 235.368C-367.427 221.554 -331.029 218.842 -293.803 227.231C-256.577 235.62 -220.178 232.907 -184.607 219.093C-149.036 205.28 -112.637 202.567 -75.411 210.956C-38.1851 219.345 -1.78647 216.633 33.7849 202.819C69.3562 189.005 105.755 186.293 142.981 194.682C180.207 203.071 216.605 200.358 252.177 186.544C287.748 172.73 324.147 170.018 361.373 178.407C398.598 186.796 434.997 184.084 470.568 170.27C506.14 156.456 542.538 153.743 579.764 162.132C616.99 170.521 653.389 167.809 688.96 153.995C724.532 140.181 760.93 137.469 798.156 145.858C835.382 154.247 871.781 151.534 907.352 137.721C942.923 123.907 979.322 121.194 1016.55 129.583C1053.77 137.972 1090.17 135.26 1125.74 121.446C1161.32 107.632 1197.71 104.92 1234.94 113.309C1272.17 121.698 1308.56 118.985 1344.14 105.171C1379.71 91.3576 1416.11 88.6452 1453.33 97.0342C1490.56 105.423 1526.96 102.711 1562.53 88.8969C1598.1 75.0831 1634.5 72.3706 1671.72 80.7596C1708.95 89.1486 1745.35 86.4362 1780.92 72.6223" stroke="#F2F7FF" stroke-opacity="0.1" stroke-width="2"/>
<path d="M-402.283 244.974C-366.711 231.161 -330.313 228.448 -293.087 236.837C-255.861 245.226 -219.462 242.514 -183.891 228.7C-148.319 214.886 -111.921 212.174 -74.6949 220.563C-37.469 228.952 -1.07036 226.239 34.501 212.425C70.0723 198.612 106.471 195.899 143.697 204.288C180.923 212.677 217.321 209.965 252.893 196.151C288.464 182.337 324.863 179.625 362.089 188.013C399.315 196.402 435.713 193.69 471.285 179.876C506.856 166.062 543.255 163.35 580.481 171.739C617.706 180.128 654.105 177.415 689.676 163.602C725.248 149.788 761.646 147.075 798.872 155.464C836.098 163.853 872.497 161.141 908.068 147.327C943.64 133.513 980.038 130.801 1017.26 139.19C1054.49 147.579 1090.89 144.866 1126.46 131.052C1162.03 117.239 1198.43 114.526 1235.66 122.915C1272.88 131.304 1309.28 128.592 1344.85 114.778C1380.42 100.964 1416.82 98.2516 1454.05 106.641C1491.27 115.03 1527.67 112.317 1563.24 98.5033C1598.81 84.6895 1635.21 81.9771 1672.44 90.366C1709.67 98.755 1746.06 96.0426 1781.64 82.2288" stroke="#F2F7FF" stroke-opacity="0.1" stroke-width="2"/>
<path d="M-401.567 254.581C-365.995 240.767 -329.597 238.055 -292.371 246.444C-255.145 254.833 -218.746 252.12 -183.175 238.306C-147.604 224.493 -111.205 221.78 -73.9791 230.169C-36.7532 238.558 -0.354541 235.846 35.2168 222.032C70.7882 208.218 107.187 205.506 144.413 213.895C181.639 222.283 218.037 219.571 253.609 205.757C289.18 191.943 325.579 189.231 362.805 197.62C400.03 206.009 436.429 203.296 472 189.483C507.572 175.669 543.97 172.956 581.196 181.345C618.422 189.734 654.821 187.022 690.392 173.208C725.964 159.394 762.362 156.682 799.588 165.071C836.814 173.46 873.213 170.747 908.784 156.933C944.355 143.12 980.754 140.407 1017.98 148.796C1055.21 157.185 1091.6 154.473 1127.18 140.659C1162.75 126.845 1199.15 124.133 1236.37 132.522C1273.6 140.911 1310 138.198 1345.57 124.384C1381.14 110.571 1417.54 107.858 1454.76 116.247C1491.99 124.636 1528.39 121.924 1563.96 108.11C1599.53 94.2959 1635.93 91.5835 1673.16 99.9725C1710.38 108.361 1746.78 105.649 1782.35 91.8352" stroke="#F2F7FF" stroke-opacity="0.1" stroke-width="2"/>
<path d="M-400.851 264.188C-365.28 250.375 -328.881 247.662 -291.655 256.051C-254.429 264.44 -218.031 261.728 -182.459 247.914C-146.888 234.1 -110.489 231.388 -73.2633 239.777C-36.0374 248.165 0.361235 245.453 35.9326 231.639C71.5039 217.825 107.903 215.113 145.128 223.502C182.354 231.891 218.753 229.178 254.324 215.365C289.896 201.551 326.294 198.838 363.52 207.227C400.746 215.616 437.145 212.904 472.716 199.09C508.288 185.276 544.686 182.564 581.912 190.953C619.138 199.342 655.537 196.629 691.108 182.815C726.679 169.002 763.078 166.289 800.304 174.678C837.53 183.067 873.928 180.355 909.5 166.541C945.071 152.727 981.47 150.015 1018.7 158.404C1055.92 166.793 1092.32 164.08 1127.89 150.266C1163.46 136.453 1199.86 133.74 1237.09 142.129C1274.31 150.518 1310.71 147.806 1346.28 133.992C1381.85 120.178 1418.25 117.466 1455.48 125.854C1492.71 134.243 1529.1 131.531 1564.68 117.717C1600.25 103.903 1636.65 101.191 1673.87 109.58C1711.1 117.969 1747.5 115.256 1783.07 101.443" stroke="#F2F7FF" stroke-opacity="0.1" stroke-width="2"/>
<path d="M-400.135 273.795C-364.564 259.981 -328.165 257.269 -290.939 265.658C-253.713 274.046 -217.315 271.334 -181.743 257.52C-146.172 243.706 -109.773 240.994 -72.5474 249.383C-35.3215 257.772 1.0771 255.059 36.6485 241.246C72.2198 227.432 108.618 224.719 145.844 233.108C183.07 241.497 219.469 238.785 255.04 224.971C290.612 211.157 327.01 208.445 364.236 216.834C401.462 225.223 437.861 222.51 473.432 208.697C509.003 194.883 545.402 192.17 582.628 200.559C619.854 208.948 656.253 206.236 691.824 192.422C727.395 178.608 763.794 175.896 801.02 184.285C838.246 192.674 874.644 189.961 910.216 176.147C945.787 162.334 982.186 159.621 1019.41 168.01C1056.64 176.399 1093.04 173.687 1128.61 159.873C1164.18 146.059 1200.58 143.347 1237.8 151.735C1275.03 160.124 1311.43 157.412 1347 143.598C1382.57 129.784 1418.97 127.072 1456.2 135.461C1493.42 143.85 1529.82 141.137 1565.39 127.324C1600.96 113.51 1637.36 110.797 1674.59 119.186C1711.81 127.575 1748.21 124.863 1783.78 111.049" stroke="#F2F7FF" stroke-opacity="0.1" stroke-width="2"/>
<path d="M-399.419 283.401C-363.848 269.587 -327.449 266.875 -290.223 275.264C-252.997 283.653 -216.599 280.941 -181.027 267.127C-145.456 253.313 -109.057 250.6 -71.8314 258.989C-34.6055 267.378 1.79312 264.666 37.3645 250.852C72.9358 237.038 109.334 234.326 146.56 242.715C183.786 251.104 220.185 248.391 255.756 234.578C291.328 220.764 327.726 218.051 364.952 226.44C402.178 234.829 438.577 232.117 474.148 218.303C509.719 204.489 546.118 201.777 583.344 210.166C620.57 218.555 656.968 215.842 692.54 202.028C728.111 188.215 764.51 185.502 801.736 193.891C838.962 202.28 875.36 199.568 910.932 185.754C946.503 171.94 982.902 169.228 1020.13 177.617C1057.35 186.006 1093.75 183.293 1129.32 169.479C1164.89 155.665 1201.29 152.953 1238.52 161.342C1275.75 169.731 1312.14 167.019 1347.72 153.205C1383.29 139.391 1419.69 136.678 1456.91 145.067C1494.14 153.456 1530.54 150.744 1566.11 136.93C1601.68 123.116 1638.08 120.404 1675.3 128.793C1712.53 137.182 1748.93 134.469 1784.5 120.656" stroke="#F2F7FF" stroke-opacity="0.1" stroke-width="2"/>
<path d="M-398.703 293.009C-363.132 279.195 -326.733 276.482 -289.507 284.871C-252.281 293.26 -215.883 290.548 -180.311 276.734C-144.74 262.92 -108.342 260.208 -71.1156 268.597C-33.8897 276.986 2.50894 274.273 38.0803 260.46C73.6516 246.646 110.05 243.933 147.276 252.322C184.502 260.711 220.901 257.999 256.472 244.185C292.043 230.371 328.442 227.659 365.668 236.048C402.894 244.437 439.293 241.724 474.864 227.91C510.435 214.097 546.834 211.384 584.06 219.773C621.286 228.162 657.684 225.45 693.256 211.636C728.827 197.822 765.226 195.11 802.452 203.499C839.677 211.888 876.076 209.175 911.647 195.361C947.219 181.547 983.617 178.835 1020.84 187.224C1058.07 195.613 1094.47 192.901 1130.04 179.087C1165.61 165.273 1202.01 162.56 1239.24 170.949C1276.46 179.338 1312.86 176.626 1348.43 162.812C1384 148.998 1420.4 146.286 1457.63 154.675C1494.85 163.064 1531.25 160.351 1566.82 146.538C1602.39 132.724 1638.79 130.011 1676.02 138.4C1713.24 146.789 1749.64 144.077 1785.21 130.263" stroke="#F2F7FF" stroke-opacity="0.1" stroke-width="2"/>
<path d="M-397.987 302.615C-362.416 288.801 -326.017 286.089 -288.792 294.478C-251.566 302.867 -215.167 300.154 -179.596 286.341C-144.024 272.527 -107.626 269.814 -70.3997 278.203C-33.1738 286.592 3.2248 283.88 38.7962 270.066C74.3675 256.252 110.766 253.54 147.992 261.929C185.218 270.318 221.617 267.605 257.188 253.791C292.759 239.978 329.158 237.265 366.384 245.654C403.61 254.043 440.008 251.331 475.58 237.517C511.151 223.703 547.55 220.991 584.776 229.38C622.002 237.769 658.4 235.056 693.972 221.242C729.543 207.428 765.942 204.716 803.167 213.105C840.393 221.494 876.792 218.782 912.363 204.968C947.935 191.154 984.333 188.441 1021.56 196.83C1058.79 205.219 1095.18 202.507 1130.76 188.693C1166.33 174.879 1202.73 172.167 1239.95 180.556C1277.18 188.945 1313.58 186.232 1349.15 172.419C1384.72 158.605 1421.12 155.892 1458.34 164.281C1495.57 172.67 1531.97 169.958 1567.54 156.144C1603.11 142.33 1639.51 139.618 1676.73 148.007C1713.96 156.396 1750.36 153.683 1785.93 139.869" stroke="#F2F7FF" stroke-opacity="0.1" stroke-width="2"/>
<path d="M-397.271 312.222C-361.7 298.408 -325.301 295.695 -288.075 304.084C-250.85 312.473 -214.451 309.761 -178.88 295.947C-143.308 282.133 -106.91 279.421 -69.6837 287.81C-32.4578 296.199 3.94083 293.486 39.5122 279.672C75.0835 265.859 111.482 263.146 148.708 271.535C185.934 279.924 222.333 277.212 257.904 263.398C293.475 249.584 329.874 246.872 367.1 255.261C404.326 263.65 440.724 260.937 476.296 247.123C511.867 233.309 548.266 230.597 585.492 238.986C622.718 247.375 659.116 244.663 694.688 230.849C730.259 217.035 766.658 214.322 803.883 222.711C841.109 231.1 877.508 228.388 913.079 214.574C948.651 200.76 985.049 198.048 1022.28 206.437C1059.5 214.826 1095.9 212.113 1131.47 198.3C1167.04 184.486 1203.44 181.773 1240.67 190.162C1277.89 198.551 1314.29 195.839 1349.86 182.025C1385.43 168.211 1421.83 165.499 1459.06 173.888C1496.28 182.277 1532.68 179.564 1568.25 165.75C1603.83 151.937 1640.22 149.224 1677.45 157.613C1714.68 166.002 1751.08 163.29 1786.65 149.476" stroke="#F2F7FF" stroke-opacity="0.1" stroke-width="2"/>
</svg>
